<svg preserveAspectRatio="xMidYMid meet" width="27.2796" height="18.4326" overflow="visible" viewBox="0 0 27.2796 18.4326" fill="none" xmlns="http://www.w3.org/2000/svg">
<g id="Group">
<path id="Vector" d="M12.8357 9.01141C12.5434 9.09919 12.1925 9.18696 11.7539 9.24548C11.3153 9.30399 10.8475 9.3625 10.3797 9.3625C9.88265 9.3625 9.44407 9.27473 9.03473 9.12844C8.65463 8.98215 8.30377 8.77735 8.04062 8.48477C7.77747 8.19219 7.54356 7.87036 7.39737 7.46075C7.25118 7.05114 7.16346 6.61227 7.16346 6.11489C7.16346 5.61751 7.22194 5.17864 7.33889 4.76903C7.45585 4.35942 7.63128 4.03758 7.89443 3.745C8.12833 3.45242 8.42072 3.24762 8.77158 3.10133C9.12245 2.95504 9.50255 2.86727 9.97036 2.86727C10.2627 2.86727 10.5551 2.89652 10.789 2.9843C11.023 3.04281 11.2276 3.13059 11.4031 3.21836V0.234064L12.865 0V9.01141H12.8357ZM8.65463 6.08563C8.65463 6.7293 8.80082 7.22669 9.12245 7.57778C9.41483 7.92887 9.85341 8.10442 10.3797 8.10442C10.6136 8.10442 10.8183 8.10442 10.9645 8.07516C11.1399 8.0459 11.2569 8.04591 11.3738 8.01665V4.47645C11.2569 4.38868 11.0814 4.3009 10.8768 4.24239C10.6721 4.15461 10.4382 4.12536 10.2043 4.12536C9.67798 4.12536 9.29788 4.3009 9.03473 4.652C8.77158 5.00309 8.65463 5.47121 8.65463 6.08563Z" fill="var(--fill-0, #DFDFDF)"/>
<path id="Vector_2" d="M14.3269 6.14441C14.3269 5.58852 14.4146 5.12039 14.5608 4.71078C14.7363 4.30117 14.9409 3.95008 15.2041 3.68676C15.4672 3.42344 15.7889 3.21863 16.1397 3.07234C16.4906 2.92605 16.8414 2.86754 17.2215 2.86754C18.0987 2.86754 18.7712 3.13086 19.239 3.6575C19.7361 4.18414 19.97 4.9741 19.97 6.02738C19.97 6.11516 19.97 6.20293 19.97 6.2907C19.97 6.37848 19.97 6.46625 19.9407 6.55403H15.8181C15.8473 7.05141 16.0228 7.43176 16.3444 7.69508C16.666 7.9584 17.1338 8.10469 17.7186 8.10469C18.0695 8.10469 18.3911 8.07543 18.6835 8.01692C18.9759 7.9584 19.2098 7.89988 19.3852 7.81211L19.5899 8.98242C19.5021 9.01168 19.3852 9.0702 19.2682 9.09946C19.122 9.12871 18.9759 9.18723 18.8004 9.21649C18.625 9.24574 18.4203 9.275 18.2157 9.30426C18.011 9.33352 17.8063 9.33352 17.5724 9.33352C17.0169 9.33352 16.5491 9.24575 16.1397 9.09946C15.7304 8.92391 15.3795 8.7191 15.1164 8.42653C14.8532 8.13395 14.6485 7.81211 14.5316 7.4025C14.3854 7.02215 14.3269 6.61254 14.3269 6.14441ZM18.5373 5.50074C18.5373 5.29594 18.508 5.12039 18.4496 4.94485C18.3911 4.7693 18.3034 4.62301 18.2157 4.47672C18.0987 4.35969 17.9817 4.24265 17.8063 4.15488C17.6601 4.06711 17.4554 4.03785 17.2508 4.03785C17.0169 4.03785 16.8414 4.06711 16.666 4.15488C16.4906 4.24265 16.3444 4.35969 16.2274 4.47672C16.1105 4.62301 16.0228 4.7693 15.9643 4.94485C15.9058 5.12039 15.8473 5.29594 15.8181 5.47148H18.5373V5.50074Z" fill="var(--fill-0, #DFDFDF)"/>
<path id="Vector_3" d="M3.59635 15.068C3.59635 14.4243 3.50863 13.9562 3.36244 13.6636C3.18701 13.371 2.89462 13.2247 2.45604 13.2247C2.30985 13.2247 2.10518 13.2247 1.92975 13.254C1.72508 13.2832 1.57888 13.2833 1.49117 13.3125V18.3156H0V12.3177C0.292386 12.23 0.643249 12.1715 1.11107 12.0837C1.54964 12.0252 2.0467 11.9666 2.54376 11.9666C2.98234 11.9666 3.3332 12.0252 3.59635 12.1422C3.85949 12.2592 4.0934 12.4055 4.29807 12.5811C4.38579 12.5225 4.50274 12.464 4.64893 12.3763C4.79513 12.3177 4.94132 12.23 5.11675 12.1714C5.29218 12.1129 5.46761 12.0544 5.64305 12.0252C5.81848 11.9959 6.02315 11.9666 6.22782 11.9666C6.72487 11.9666 7.13421 12.0252 7.4266 12.1714C7.74822 12.3177 7.98213 12.4933 8.1868 12.7566C8.36223 12.9907 8.47919 13.3125 8.5669 13.6636C8.65462 14.0147 8.68386 14.395 8.68386 14.8047V18.2863H7.22193V15.0387C7.22193 14.395 7.13421 13.9269 6.98802 13.6343C6.84183 13.3418 6.5202 13.1955 6.05239 13.1955C5.81848 13.1955 5.61381 13.2247 5.3799 13.3125C5.17523 13.4003 5.02904 13.4588 4.91208 13.5173C4.97056 13.7221 5.02904 13.9269 5.05827 14.1317C5.08751 14.3658 5.08751 14.5998 5.08751 14.8339V18.2571H3.62558V15.068H3.59635Z" fill="var(--fill-0, #DFDFDF)"/>
<path id="Vector_4" d="M12.4849 11.9666C12.9527 11.9666 13.362 12.0252 13.7129 12.1422C14.0345 12.2592 14.2976 12.4348 14.5023 12.6396C14.707 12.8444 14.8532 13.1077 14.9117 13.4295C14.9994 13.7221 15.0286 14.0732 15.0286 14.4243V18.1693C14.7947 18.2278 14.4731 18.2863 14.0053 18.3449C13.5667 18.4034 13.0404 18.4326 12.4849 18.4326C12.1048 18.4326 11.7539 18.4034 11.4615 18.3156C11.1399 18.2571 10.8767 18.14 10.6721 17.9645C10.4382 17.8182 10.292 17.6134 10.1458 17.3501C10.0288 17.0868 9.97034 16.7942 9.97034 16.4138C9.97034 16.0627 10.0288 15.7702 10.175 15.5068C10.3212 15.2728 10.4966 15.068 10.7598 14.9217C10.9937 14.7754 11.2861 14.6584 11.6077 14.5999C11.9293 14.5413 12.2509 14.5121 12.6018 14.5121C12.748 14.5121 12.9234 14.5121 13.0989 14.5413C13.2743 14.5706 13.4497 14.5999 13.6544 14.6291V14.395C13.6544 14.2195 13.6252 14.0732 13.5959 13.9269C13.5667 13.7806 13.479 13.6343 13.3913 13.5173C13.3035 13.4003 13.1573 13.3125 12.9819 13.254C12.8065 13.1955 12.6018 13.1662 12.3679 13.1662C12.017 13.1662 11.7247 13.1955 11.4323 13.2247C11.1399 13.2832 10.9352 13.3418 10.7598 13.4003L10.5843 12.23C10.7598 12.1715 11.0229 12.1129 11.403 12.0544C11.7247 11.9959 12.1048 11.9666 12.4849 11.9666ZM12.631 17.3208C13.0696 17.3208 13.4205 17.2916 13.6544 17.2623V15.6824C13.5667 15.6531 13.4497 15.6239 13.3035 15.6239C13.1573 15.5946 12.9819 15.5946 12.8065 15.5946C12.6603 15.5946 12.4849 15.5946 12.3094 15.6239C12.134 15.6531 11.9878 15.6824 11.8708 15.7409C11.7247 15.7994 11.6369 15.8872 11.5492 16.0042C11.4615 16.1213 11.4323 16.2675 11.4323 16.4431C11.4323 16.7942 11.5492 17.0282 11.7539 17.1453C11.9586 17.2331 12.2509 17.3208 12.631 17.3208Z" fill="var(--fill-0, #DFDFDF)"/>
<path id="Vector_5" d="M20.4086 13.4C20.2916 13.3708 20.1162 13.3123 19.9115 13.283C19.7069 13.2537 19.4437 13.2245 19.1806 13.2245C19.0344 13.2245 18.8589 13.2537 18.6835 13.283C18.5081 13.3123 18.3911 13.3415 18.3034 13.3708V18.3446H16.8415V12.4345C17.1339 12.3175 17.4847 12.2297 17.8941 12.1419C18.3034 12.0542 18.7712 11.9957 19.2975 11.9957C19.3852 11.9957 19.5022 11.9957 19.6484 12.0249C19.7653 12.0249 19.9115 12.0542 20.0285 12.0834C20.1454 12.1127 20.2916 12.1127 20.4086 12.1419C20.5255 12.1712 20.6133 12.2005 20.701 12.2297L20.4086 13.4Z" fill="var(--fill-0, #DFDFDF)"/>
<path id="Vector_6" d="M26.6948 17.4375C26.4901 17.1157 26.2562 16.7939 25.9931 16.5013C25.7592 16.1794 25.496 15.8869 25.2329 15.5943C24.9697 15.3017 24.7066 15.0676 24.4727 14.8628C24.9113 14.424 25.3791 13.9558 25.8177 13.4877C26.2562 13.0196 26.6948 12.5515 27.0749 12.1126H25.3498C25.2329 12.2589 25.0574 12.4344 24.882 12.6392C24.7066 12.844 24.5019 13.0488 24.2972 13.2537C24.0926 13.4585 23.8879 13.6925 23.6832 13.8973C23.4786 14.1021 23.2739 14.3069 23.0985 14.5117V9.18682V9.09904V4.18373C23.1862 4.15447 23.3324 4.15447 23.537 4.12521C23.7417 4.09596 23.9171 4.09595 24.1218 4.09595C24.3557 4.09595 24.5896 4.12521 24.7651 4.18373C24.9405 4.24224 25.0867 4.35928 25.1744 4.50557C25.2621 4.65186 25.3498 4.8274 25.3791 5.06146C25.4083 5.29553 25.4375 5.5881 25.4375 5.90994V9.15756H26.8995V5.67588C26.8995 5.26627 26.8702 4.88592 26.7825 4.53482C26.6948 4.18373 26.5486 3.89115 26.3439 3.62783C26.1393 3.36451 25.8761 3.18896 25.5253 3.04268C25.1744 2.89639 24.7651 2.83787 24.2388 2.83787C23.6832 2.83787 23.1862 2.86713 22.7476 2.9549C22.309 3.01342 21.9289 3.10119 21.6658 3.18896V8.95276V9.18682V18.286H23.1277V15.448C23.3324 15.5943 23.5663 15.7991 23.8002 16.0331C24.0341 16.2672 24.2388 16.5013 24.4727 16.7353C24.6773 16.9987 24.882 17.262 25.0867 17.5253C25.2621 17.7886 25.4375 18.0519 25.5837 18.286H27.2796C27.1041 18.0519 26.9287 17.7594 26.6948 17.4375Z" fill="var(--fill-0, #DFDFDF)"/>
</g>
</svg>
