<svg preserveAspectRatio="xMidYMid meet" width="47.8635" height="57.1116" overflow="visible" viewBox="0 0 47.8635 57.1116" fill="none" xmlns="http://www.w3.org/2000/svg">
<g id="Group">
<path id="Vector" d="M4.88286 12.6394C5.78925 12.6394 6.46174 12.5223 6.87108 12.3175C7.28042 12.1127 7.48509 11.7324 7.48509 11.2057C7.48509 10.7084 7.25118 10.328 6.8126 10.0062C6.37402 9.68434 5.61382 9.33325 4.59047 8.95289C3.97646 8.71883 3.39169 8.48477 2.86539 8.22145C2.3391 7.95813 1.90052 7.66555 1.52042 7.34371C1.14032 6.99262 0.847933 6.61227 0.614024 6.11488C0.380115 5.64676 0.2924 5.0616 0.2924 4.35941C0.2924 3.01355 0.789455 1.96027 1.81281 1.17031C2.80692 0.380352 4.18113 0 5.93545 0C6.8126 0 7.66052 0.0877721 8.44996 0.234061C9.2394 0.38035 9.85341 0.555897 10.2628 0.702186L9.64874 3.45242C9.26864 3.27688 8.77159 3.13059 8.18682 2.9843C7.60204 2.83801 6.90032 2.77949 6.14012 2.77949C5.43839 2.77949 4.85362 2.89652 4.41504 3.13059C3.97646 3.36465 3.77179 3.71574 3.77179 4.21313C3.77179 4.44719 3.80103 4.68125 3.88875 4.8568C3.97646 5.03235 4.12265 5.20789 4.32732 5.38344C4.53199 5.52973 4.82438 5.70528 5.146 5.85157C5.49686 5.99785 5.9062 6.1734 6.40326 6.34895C7.22194 6.64153 7.92367 6.9341 8.4792 7.22668C9.06397 7.51926 9.53179 7.8411 9.88265 8.22145C10.2628 8.57254 10.5259 9.01141 10.7013 9.47953C10.8768 9.94766 10.9645 10.5036 10.9645 11.1765C10.9645 12.5809 10.4382 13.6341 9.38559 14.3656C8.33301 15.097 6.8126 15.4481 4.85362 15.4481C3.53788 15.4481 2.48529 15.3311 1.69585 15.1263C0.906409 14.9215 0.321639 14.7459 1.44273e-05 14.5997L0.584786 11.7616C1.11108 11.9665 1.72509 12.1713 2.42681 12.3468C3.15778 12.5516 3.97646 12.6394 4.88286 12.6394Z" fill="var(--fill-0, #DFDFDF)"/>
<path id="Vector_2" d="M27.689 7.72449C27.689 8.8948 27.5136 9.94808 27.1627 10.9136C26.8119 11.8791 26.344 12.6983 25.7008 13.3712C25.0868 14.0442 24.3266 14.5708 23.4202 14.9512C22.543 15.3315 21.5489 15.5071 20.4963 15.5071C19.4437 15.5071 18.4496 15.3315 17.5725 14.9512C16.6953 14.5708 15.9351 14.0442 15.3211 13.3712C14.7071 12.6983 14.21 11.8791 13.8592 10.9136C13.5083 9.94808 13.3329 8.8948 13.3329 7.72449C13.3329 6.55417 13.5083 5.50089 13.8592 4.56464C14.21 3.62839 14.7071 2.80917 15.3503 2.13624C15.9936 1.46331 16.7538 0.936672 17.6309 0.585578C18.5081 0.205226 19.473 0.0296789 20.5256 0.0296789C21.5782 0.0296789 22.543 0.205226 23.4202 0.585578C24.2973 0.936672 25.0575 1.46331 25.7008 2.13624C26.3148 2.80917 26.8119 3.62839 27.1627 4.56464C27.5136 5.50089 27.689 6.55417 27.689 7.72449ZM24.1511 7.72449C24.1511 6.26159 23.8295 5.09128 23.1863 4.24281C22.543 3.39433 21.6659 2.95546 20.5256 2.95546C19.3853 2.95546 18.5081 3.39433 17.8649 4.24281C17.2216 5.09128 16.9 6.26159 16.9 7.72449C16.9 9.21663 17.2216 10.3869 17.8649 11.2354C18.5081 12.0839 19.3853 12.5228 20.5256 12.5228C21.6659 12.5228 22.543 12.0839 23.1863 11.2354C23.8295 10.3869 24.1511 9.21663 24.1511 7.72449Z" fill="var(--fill-0, #DFDFDF)"/>
<path id="Vector_3" d="M43.5071 14.6585C42.8347 14.834 41.9867 15.0096 40.9049 15.1851C39.8523 15.3607 38.6828 15.4485 37.3963 15.4485C36.1975 15.4485 35.2034 15.2729 34.3847 14.9511C33.566 14.6 32.9228 14.1319 32.455 13.5467C31.9579 12.9323 31.6363 12.2301 31.4024 11.3816C31.1977 10.5624 31.0808 9.62615 31.0808 8.63138V0.380676H34.5309V8.07549C34.5309 9.65541 34.7648 10.7672 35.2326 11.4401C35.7004 12.1131 36.5191 12.4642 37.6594 12.4642C38.0688 12.4642 38.5074 12.4349 38.9752 12.4056C39.443 12.3764 39.7938 12.3179 40.0278 12.2594V0.380676H43.4779V14.6585H43.5071Z" fill="var(--fill-0, #DFDFDF)"/>
<path id="Vector_4" d="M30.4667 35.4605C29.7942 35.6653 28.917 35.8408 27.8937 36.0164C26.8703 36.1919 25.7592 36.2797 24.6189 36.2797C23.4494 36.2797 22.3968 36.1042 21.4612 35.7531C20.5255 35.402 19.7361 34.8753 19.0636 34.2317C18.4204 33.5587 17.8941 32.7688 17.5432 31.8033C17.1923 30.867 17.0169 29.7845 17.0169 28.6142C17.0169 27.4439 17.1631 26.3906 17.4555 25.4543C17.7479 24.5181 18.1865 23.6988 18.742 23.0259C19.3268 22.353 19.9992 21.8263 20.8179 21.4753C21.6366 21.1242 22.5722 20.9194 23.6541 20.9194C24.385 20.9194 25.0283 21.0071 25.5546 21.1827C26.1101 21.3582 26.5779 21.5338 26.9873 21.7386V14.6874L30.4374 14.1315V35.4605H30.4667ZM20.5548 28.5264C20.5548 30.0185 20.9056 31.1889 21.6366 32.0666C22.3676 32.9151 23.3617 33.3539 24.6482 33.3539C25.2037 33.3539 25.6715 33.3247 26.0516 33.2954C26.4317 33.2369 26.7534 33.2076 27.0165 33.1491V24.7229C26.7241 24.5181 26.3148 24.3133 25.8177 24.1377C25.3207 23.9622 24.7651 23.8744 24.2096 23.8744C22.9523 23.8744 22.0459 24.284 21.4612 25.1325C20.8472 25.9517 20.5548 27.0928 20.5548 28.5264Z" fill="var(--fill-0, #DFDFDF)"/>
<path id="Vector_5" d="M13.6252 35.9287V27.6487C13.6252 26.654 13.5374 25.747 13.3328 24.8985C13.1281 24.05 12.7772 23.3478 12.3094 22.7627C11.8124 22.1775 11.1691 21.7094 10.3504 21.3875C9.53175 21.0657 8.5084 20.8902 7.30962 20.8902C6.02312 20.8902 4.82434 20.9779 3.77175 21.1535C2.71916 21.329 1.84201 21.5046 1.16952 21.6801V35.4898V35.9287V56.7603H4.59043V45.0571C4.82434 44.9694 5.17521 44.9108 5.64302 44.7938C6.11084 44.706 6.57865 44.6475 7.04647 44.6475C7.63124 44.6475 8.1283 44.7353 8.53764 44.8816C8.94698 45.0279 9.26861 45.2912 9.50251 45.6423C9.73642 45.9934 9.91186 46.4322 10.0288 46.9881C10.1458 47.544 10.175 48.217 10.175 49.0069V56.731H13.6252V48.451C13.6252 47.427 13.5374 46.52 13.3328 45.7008C13.1281 44.8816 12.8065 44.1794 12.3094 43.565C11.8416 42.9798 11.1983 42.5117 10.4089 42.1899C9.61947 41.868 8.62536 41.6925 7.42657 41.6925C6.92952 41.6925 6.43246 41.751 5.93541 41.8388C5.43835 41.9265 4.99977 42.0436 4.61967 42.1899V35.8994V34.9047V24.05C4.85358 24.0207 5.20444 23.9622 5.67226 23.9037C6.14008 23.8452 6.60789 23.8159 7.04647 23.8159C7.63124 23.8159 8.1283 23.9037 8.53764 24.05C8.94698 24.1963 9.26861 24.4596 9.50251 24.8107C9.73642 25.1618 9.91186 25.6007 10.0288 26.1566C10.1458 26.7125 10.175 27.3854 10.175 28.1754V35.8994H13.6252V35.9287Z" fill="var(--fill-0, #DFDFDF)"/>
<path id="Vector_6" d="M29.9989 56.2922C29.3264 56.4677 28.4785 56.6433 27.3967 56.8188C26.3441 56.9944 25.1746 57.0822 23.8881 57.0822C22.6893 57.0822 21.6952 56.9066 20.8765 56.5848C20.0578 56.2337 19.4146 55.7656 18.9467 55.1804C18.4497 54.566 18.1281 53.8638 17.8942 53.0153C17.6895 52.1961 17.5725 51.2599 17.5725 50.2651V42.0144H21.0227V49.7092C21.0227 51.2891 21.2566 52.4009 21.7244 53.0738C22.1922 53.7468 23.0109 54.0979 24.1512 54.0979C24.5606 54.0979 24.9991 54.0686 25.4669 54.0393C25.9348 54.0101 26.2856 53.9516 26.5195 53.8931V42.0144H29.9697V56.2922H29.9989Z" fill="var(--fill-0, #DFDFDF)"/>
<path id="Vector_7" d="M47.8635 49.4168C47.8635 50.5872 47.6881 51.6697 47.3372 52.6059C46.9864 53.5422 46.4893 54.3614 45.8168 55.0343C45.1736 55.7073 44.3549 56.2339 43.4193 56.585C42.4836 56.9361 41.4311 57.1116 40.2615 57.1116C39.1212 57.1116 38.0394 57.0239 36.9868 56.8483C35.9634 56.6728 35.0863 56.4972 34.4138 56.2924V35.4901L37.8639 34.9342V42.5412C38.2733 42.3364 38.7411 42.1609 39.3259 41.9854C39.9106 41.8098 40.5539 41.722 41.2556 41.722C42.3082 41.722 43.2438 41.8976 44.0625 42.2779C44.8812 42.6583 45.5829 43.1557 46.1385 43.8286C46.694 44.5015 47.1033 45.3207 47.3957 46.257C47.6881 47.2225 47.8635 48.2758 47.8635 49.4168ZM44.2964 49.3583C44.2964 47.9247 44.004 46.7836 43.4193 45.9352C42.8345 45.0867 41.9281 44.6771 40.6708 44.6771C40.0861 44.6771 39.5598 44.7648 39.0627 44.9404C38.5657 45.1159 38.1563 45.2915 37.8639 45.4963V53.9518C38.0979 54.0103 38.4195 54.0688 38.8288 54.0981C39.2089 54.1566 39.6767 54.1566 40.2323 54.1566C41.5188 54.1566 42.5129 53.7177 43.2438 52.8693C43.9456 52.0208 44.2964 50.8505 44.2964 49.3583Z" fill="var(--fill-0, #DFDFDF)"/>
</g>
</svg>
