<svg width="117" height="82" viewBox="0 0 117 82" fill="none" xmlns="http://www.w3.org/2000/svg">
<path d="M116.954 0H34.063V18.0521H37.3085V3.1891H113.709V78.4402H90.0841V81.6293H116.954V0Z" fill="#DFDFDF"/>
<path d="M38.5952 37.4504C39.5016 37.4504 40.1741 37.3334 40.5835 37.1286C40.9928 36.9238 41.1975 36.5434 41.1975 36.0168C41.1975 35.5194 40.9636 35.139 40.525 34.8172C40.0864 34.4954 39.3262 34.1443 38.3029 33.7639C37.6888 33.5299 37.1041 33.2958 36.5778 33.0325C36.0515 32.7692 35.6129 32.4766 35.2328 32.1547C34.8527 31.8037 34.5603 31.4233 34.3264 30.9259C34.0925 30.4578 34.0048 29.8726 34.0048 29.1704C34.0048 27.8246 34.5018 26.7713 35.5252 25.9813C36.5193 25.1914 37.8935 24.811 39.6478 24.811C40.525 24.811 41.3729 24.8988 42.1623 25.0451C42.9518 25.1914 43.5658 25.3669 43.9751 25.5132L43.3611 28.2635C42.981 28.0879 42.484 27.9416 41.8992 27.7953C41.3144 27.649 40.6127 27.5905 39.8525 27.5905C39.1508 27.5905 38.566 27.7076 38.1274 27.9416C37.6888 28.1757 37.4842 28.5268 37.4842 29.0242C37.4842 29.2582 37.5134 29.4923 37.6011 29.6678C37.6888 29.8434 37.835 30.0189 38.0397 30.1945C38.2444 30.3408 38.5368 30.5163 38.8584 30.6626C39.2093 30.8089 39.6186 30.9844 40.1156 31.16C40.9343 31.4526 41.6361 31.7451 42.1916 32.0377C42.7764 32.3303 43.2442 32.6521 43.595 33.0325C43.9751 33.3836 44.2383 33.8224 44.4137 34.2906C44.5891 34.7587 44.6769 35.3146 44.6769 35.9875C44.6769 37.3919 44.1506 38.4452 43.098 39.1766C42.0454 39.9081 40.525 40.2592 38.566 40.2592C37.2503 40.2592 36.1977 40.1421 35.4082 39.9373C34.6188 39.7325 34.034 39.557 33.7124 39.4107L34.2972 36.5727C34.8235 36.7775 35.4375 36.9823 36.1392 37.1578C36.8702 37.3626 37.6888 37.4504 38.5952 37.4504Z" fill="#DFDFDF"/>
<path d="M61.4016 32.5354C61.4016 33.7057 61.2261 34.759 60.8753 35.7245C60.5244 36.69 60.0566 37.5092 59.4133 38.1821C58.7993 38.8551 58.0391 39.3817 57.1327 39.7621C56.2556 40.1424 55.2614 40.318 54.2089 40.318C53.1563 40.318 52.1622 40.1424 51.285 39.7621C50.4078 39.3817 49.6476 38.8551 49.0336 38.1821C48.4196 37.5092 47.9226 36.69 47.5717 35.7245C47.2208 34.759 47.0454 33.7057 47.0454 32.5354C47.0454 31.3651 47.2208 30.3118 47.5717 29.3755C47.9226 28.4393 48.4196 27.6201 49.0629 26.9471C49.7061 26.2742 50.4663 25.7476 51.3435 25.3965C52.2206 25.0161 53.1855 24.8406 54.2381 24.8406C55.2907 24.8406 56.2556 25.0161 57.1327 25.3965C58.0099 25.7476 58.7701 26.2742 59.4133 26.9471C60.0273 27.6201 60.5244 28.4393 60.8753 29.3755C61.2261 30.3118 61.4016 31.3651 61.4016 32.5354ZM57.8637 32.5354C57.8637 31.0725 57.5421 29.9022 56.8988 29.0537C56.2556 28.2052 55.3784 27.7664 54.2381 27.7664C53.0978 27.7664 52.2206 28.2052 51.5774 29.0537C50.9341 29.9022 50.6125 31.0725 50.6125 32.5354C50.6125 34.0275 50.9341 35.1978 51.5774 36.0463C52.2206 36.8948 53.0978 37.3337 54.2381 37.3337C55.3784 37.3337 56.2556 36.8948 56.8988 36.0463C57.5421 35.1978 57.8637 34.0275 57.8637 32.5354Z" fill="#DFDFDF"/>
<path d="M77.2194 39.4695C76.5469 39.645 75.699 39.8206 74.6171 39.9961C73.5645 40.1717 72.395 40.2594 71.1085 40.2594C69.9097 40.2594 68.9156 40.0839 68.0969 39.762C67.2782 39.411 66.635 38.9428 66.1672 38.3577C65.6701 37.7433 65.3485 37.0411 65.1146 36.1926C64.9099 35.3734 64.793 34.4371 64.793 33.4424V25.1917H68.2431V32.8865C68.2431 34.4664 68.477 35.5782 68.9448 36.2511C69.4127 36.924 70.2313 37.2751 71.3716 37.2751C71.781 37.2751 72.2196 37.2459 72.6874 37.2166C73.1552 37.1874 73.5061 37.1288 73.74 37.0703V25.1917H77.1901V39.4695H77.2194Z" fill="#DFDFDF"/>
<path d="M64.1792 60.2713C63.5068 60.4761 62.6296 60.6517 61.6062 60.8272C60.5829 61.0028 59.4718 61.0906 58.3315 61.0906C57.162 61.0906 56.1094 60.915 55.1738 60.5639C54.2381 60.2128 53.4487 59.6862 52.7762 59.0425C52.1329 58.3696 51.6067 57.5796 51.2558 56.6141C50.9049 55.6779 50.7295 54.5953 50.7295 53.425C50.7295 52.2547 50.8757 51.2014 51.1681 50.2652C51.4605 49.3289 51.899 48.5097 52.4546 47.8368C53.0393 47.1638 53.7118 46.6372 54.5305 46.2861C55.3492 45.935 56.2848 45.7302 57.3666 45.7302C58.0976 45.7302 58.7409 45.818 59.2672 45.9935C59.8227 46.1691 60.2905 46.3446 60.6998 46.5494V39.4983L64.15 38.9424V60.2713H64.1792ZM54.2674 53.3372C54.2674 54.8294 54.6182 55.9997 55.3492 56.8774C56.0802 57.7259 57.0743 58.1648 58.3608 58.1648C58.9163 58.1648 59.3841 58.1355 59.7642 58.1063C60.1443 58.0477 60.4659 58.0185 60.7291 57.96V49.5337C60.4367 49.3289 60.0274 49.1241 59.5303 48.9486C59.0332 48.773 58.4777 48.6852 57.9222 48.6852C56.6649 48.6852 55.7585 49.0948 55.1738 49.9433C54.5597 50.7625 54.2674 51.9036 54.2674 53.3372Z" fill="#DFDFDF"/>
<path d="M47.3375 60.7397V52.4597C47.3375 51.465 47.2498 50.558 47.0451 49.7095C46.8404 48.861 46.4895 48.1588 46.0217 47.5737C45.5247 46.9885 44.8814 46.5204 44.0627 46.1986C43.2441 45.8767 42.2207 45.7012 41.0219 45.7012C39.7354 45.7012 38.5367 45.7889 37.4841 45.9645C36.4315 46.14 35.5543 46.3156 34.8818 46.4911V60.3008V60.7397V81.5713H38.3027V69.8681C38.5367 69.7804 38.8875 69.7218 39.3553 69.6048C39.8232 69.517 40.291 69.4585 40.7588 69.4585C41.3436 69.4585 41.8406 69.5463 42.25 69.6926C42.6593 69.8389 42.9809 70.1022 43.2148 70.4533C43.4487 70.8044 43.6242 71.2433 43.7411 71.7992C43.8581 72.3551 43.8873 73.028 43.8873 73.8179V81.542H47.3375V73.262C47.3375 72.238 47.2498 71.331 47.0451 70.5118C46.8404 69.6926 46.5188 68.9904 46.0217 68.376C45.5539 67.7908 44.9107 67.3227 44.1212 67.0009C43.3318 66.679 42.3377 66.5035 41.1389 66.5035C40.6418 66.5035 40.1448 66.562 39.6477 66.6498C39.1507 66.7376 38.7121 66.8546 38.332 67.0009V60.7104V59.7157V48.861C38.5659 48.8318 38.9168 48.7732 39.3846 48.7147C39.8524 48.6562 40.3202 48.627 40.7588 48.627C41.3436 48.627 41.8406 48.7147 42.25 48.861C42.6593 49.0073 42.9809 49.2706 43.2148 49.6217C43.4487 49.9728 43.6242 50.4117 43.7411 50.9676C43.8581 51.5235 43.8873 52.1964 43.8873 52.9864V60.7104H47.3375V60.7397Z" fill="#DFDFDF"/>
<path d="M63.7116 81.103C63.0391 81.2786 62.1911 81.4541 61.1093 81.6297C60.0567 81.8052 58.8872 81.893 57.6007 81.893C56.4019 81.893 55.4078 81.7174 54.5891 81.3956C53.7704 81.0445 53.1272 80.5764 52.6594 79.9912C52.1623 79.3768 51.8407 78.6746 51.6068 77.8261C51.4021 77.0069 51.2852 76.0707 51.2852 75.0759V66.8252H54.7353V74.52C54.7353 76.0999 54.9692 77.2117 55.437 77.8847C55.9049 78.5576 56.7235 78.9087 57.8638 78.9087C58.2732 78.9087 58.7118 78.8794 59.1796 78.8502C59.6474 78.8209 59.9983 78.7624 60.2322 78.7039V66.8252H63.6823V81.103H63.7116Z" fill="#DFDFDF"/>
<path d="M81.5757 74.2277C81.5757 75.3981 81.4003 76.4806 81.0494 77.4168C80.6986 78.3531 80.2015 79.1723 79.529 79.8452C78.8858 80.5182 78.0671 81.0448 77.1315 81.3959C76.1958 81.747 75.1432 81.9226 73.9737 81.9226C72.8334 81.9226 71.7516 81.8348 70.699 81.6592C69.6756 81.4837 68.7985 81.3081 68.126 81.1033V60.301L71.5761 59.7451V67.3522C71.9855 67.1473 72.4533 66.9718 73.0381 66.7963C73.6228 66.6207 74.2661 66.5329 74.9678 66.5329C76.0204 66.5329 76.956 66.7085 77.7747 67.0888C78.5934 67.4692 79.2951 67.9666 79.8506 68.6395C80.4062 69.3124 80.8155 70.1316 81.1079 71.0679C81.4003 72.0334 81.5757 73.0867 81.5757 74.2277ZM78.0086 74.1692C78.0086 72.7356 77.7162 71.5945 77.1315 70.7461C76.5467 69.8976 75.6403 69.488 74.383 69.488C73.7983 69.488 73.272 69.5757 72.7749 69.7513C72.2779 69.9268 71.8685 70.1024 71.5761 70.3072V78.7627C71.81 78.8212 72.1317 78.8797 72.541 78.909C72.9211 78.9675 73.3889 78.9675 73.9445 78.9675C75.2309 78.9675 76.2251 78.5286 76.956 77.6802C77.6578 76.8317 78.0086 75.6614 78.0086 74.1692Z" fill="#DFDFDF"/>
<path d="M12.8359 72.121C12.5435 72.2088 12.1926 72.2966 11.754 72.3551C11.3155 72.4136 10.8476 72.4721 10.3798 72.4721C9.88276 72.4721 9.44418 72.3843 9.03484 72.2381C8.65474 72.0918 8.30388 71.887 8.04073 71.5944C7.77758 71.3018 7.54368 70.98 7.39748 70.5704C7.25129 70.1608 7.16357 69.7219 7.16357 69.2245C7.16357 68.7271 7.22205 68.2883 7.33901 67.8786C7.45596 67.469 7.63139 67.1472 7.89454 66.8546C8.12845 66.562 8.42083 66.3572 8.7717 66.211C9.12256 66.0647 9.50266 65.9769 9.97048 65.9769C10.2629 65.9769 10.5552 66.0061 10.7892 66.0939C11.0231 66.1524 11.2277 66.2402 11.4032 66.328V63.3437L12.8651 63.1096V72.121H12.8359ZM8.65474 69.1952C8.65474 69.8389 8.80093 70.3363 9.12256 70.6874C9.41494 71.0385 9.85352 71.214 10.3798 71.214C10.6137 71.214 10.8184 71.214 10.9646 71.1848C11.14 71.1555 11.257 71.1555 11.3739 71.1263V67.5861C11.257 67.4983 11.0815 67.4105 10.8769 67.352C10.6722 67.2642 10.4383 67.235 10.2044 67.235C9.67809 67.235 9.29799 67.4105 9.03484 67.7616C8.7717 68.1127 8.65474 68.5808 8.65474 69.1952Z" fill="#DFDFDF"/>
<path d="M14.3271 69.2539C14.3271 68.698 14.4149 68.2299 14.5611 67.8203C14.7365 67.4107 14.9412 67.0596 15.2043 66.7963C15.4675 66.533 15.7891 66.3281 16.1399 66.1819C16.4908 66.0356 16.8417 65.9771 17.2218 65.9771C18.0989 65.9771 18.7714 66.2404 19.2392 66.767C19.7363 67.2937 19.9702 68.0836 19.9702 69.1369C19.9702 69.2247 19.9702 69.3124 19.9702 69.4002C19.9702 69.488 19.9702 69.5758 19.941 69.6635H15.8183C15.8476 70.1609 16.023 70.5413 16.3446 70.8046C16.6662 71.0679 17.1341 71.2142 17.7188 71.2142C18.0697 71.2142 18.3913 71.1849 18.6837 71.1264C18.9761 71.0679 19.21 71.0094 19.3854 70.9216L19.5901 72.0919C19.5024 72.1212 19.3854 72.1797 19.2685 72.209C19.1223 72.2382 18.9761 72.2967 18.8007 72.326C18.6252 72.3553 18.4205 72.3845 18.2159 72.4138C18.0112 72.443 17.8065 72.443 17.5726 72.443C17.0171 72.443 16.5493 72.3553 16.1399 72.209C15.7306 72.0334 15.3797 71.8286 15.1166 71.536C14.8534 71.2435 14.6488 70.9216 14.5318 70.512C14.3856 70.1317 14.3271 69.7221 14.3271 69.2539ZM18.5375 68.6103C18.5375 68.4055 18.5083 68.2299 18.4498 68.0544C18.3913 67.8788 18.3036 67.7325 18.2159 67.5862C18.0989 67.4692 17.982 67.3522 17.8065 67.2644C17.6603 67.1766 17.4557 67.1474 17.251 67.1474C17.0171 67.1474 16.8417 67.1766 16.6662 67.2644C16.4908 67.3522 16.3446 67.4692 16.2277 67.5862C16.1107 67.7325 16.023 67.8788 15.9645 68.0544C15.906 68.2299 15.8476 68.4054 15.8183 68.581H18.5375V68.6103Z" fill="#DFDFDF"/>
<path d="M3.59635 78.1775C3.59635 77.5338 3.50863 77.0657 3.36244 76.7731C3.18701 76.4805 2.89462 76.3343 2.45604 76.3343C2.30985 76.3343 2.10518 76.3343 1.92975 76.3635C1.72508 76.3928 1.57888 76.3928 1.49117 76.422V81.4251H0V75.4273C0.292386 75.3395 0.643249 75.281 1.11107 75.1932C1.54964 75.1347 2.0467 75.0762 2.54376 75.0762C2.98234 75.0762 3.3332 75.1347 3.59635 75.2517C3.85949 75.3688 4.0934 75.515 4.29807 75.6906C4.38579 75.6321 4.50274 75.5736 4.64893 75.4858C4.79513 75.4273 4.94132 75.3395 5.11675 75.281C5.29218 75.2225 5.46761 75.1639 5.64305 75.1347C5.81848 75.1054 6.02315 75.0762 6.22782 75.0762C6.72487 75.0762 7.13421 75.1347 7.4266 75.281C7.74822 75.4273 7.98213 75.6028 8.1868 75.8661C8.36223 76.1002 8.47919 76.422 8.5669 76.7731C8.65462 77.1242 8.68386 77.5046 8.68386 77.9142V81.3959H7.22193V78.1482C7.22193 77.5046 7.13421 77.0364 6.98802 76.7439C6.84183 76.4513 6.5202 76.305 6.05239 76.305C5.81848 76.305 5.61381 76.3343 5.3799 76.422C5.17523 76.5098 5.02904 76.5683 4.91208 76.6268C4.97056 76.8316 5.02904 77.0364 5.05827 77.2412C5.08751 77.4753 5.08751 77.7094 5.08751 77.9434V81.3666H3.62558V78.1775H3.59635Z" fill="#DFDFDF"/>
<path d="M12.4847 75.0762C12.9526 75.0762 13.3619 75.1347 13.7128 75.2517C14.0344 75.3688 14.2975 75.5443 14.5022 75.7491C14.7069 75.9539 14.8531 76.2172 14.9115 76.5391C14.9993 76.8316 15.0285 77.1827 15.0285 77.5338V81.2788C14.7946 81.3373 14.473 81.3959 14.0051 81.4544C13.5666 81.5129 13.0403 81.5422 12.4847 81.5422C12.1046 81.5422 11.7538 81.5129 11.4614 81.4251C11.1398 81.3666 10.8766 81.2496 10.6719 81.074C10.438 80.9277 10.2918 80.7229 10.1456 80.4596C10.0287 80.1963 9.97021 79.9037 9.97021 79.5234C9.97021 79.1723 10.0287 78.8797 10.1749 78.6164C10.3211 78.3823 10.4965 78.1775 10.7597 78.0312C10.9936 77.8849 11.286 77.7679 11.6076 77.7094C11.9292 77.6509 12.2508 77.6216 12.6017 77.6216C12.7479 77.6216 12.9233 77.6216 13.0987 77.6509C13.2742 77.6801 13.4496 77.7094 13.6543 77.7386V77.5046C13.6543 77.329 13.625 77.1827 13.5958 77.0364C13.5666 76.8902 13.4788 76.7439 13.3911 76.6268C13.3034 76.5098 13.1572 76.422 12.9818 76.3635C12.8064 76.305 12.6017 76.2757 12.3678 76.2757C12.0169 76.2757 11.7245 76.305 11.4321 76.3343C11.1398 76.3928 10.9351 76.4513 10.7597 76.5098L10.5842 75.3395C10.7597 75.281 11.0228 75.2225 11.4029 75.1639C11.7245 75.1054 12.1046 75.0762 12.4847 75.0762ZM12.6309 80.4304C13.0695 80.4304 13.4204 80.4011 13.6543 80.3718V78.7919C13.5666 78.7627 13.4496 78.7334 13.3034 78.7334C13.1572 78.7041 12.9818 78.7041 12.8064 78.7041C12.6602 78.7041 12.4847 78.7041 12.3093 78.7334C12.1339 78.7627 11.9877 78.7919 11.8707 78.8504C11.7245 78.9089 11.6368 78.9967 11.5491 79.1137C11.4614 79.2308 11.4321 79.3771 11.4321 79.5526C11.4321 79.9037 11.5491 80.1378 11.7538 80.2548C11.9584 80.3426 12.2508 80.4304 12.6309 80.4304Z" fill="#DFDFDF"/>
<path d="M20.4084 76.5096C20.2915 76.4803 20.116 76.4218 19.9114 76.3926C19.7067 76.3633 19.4435 76.334 19.1804 76.334C19.0342 76.334 18.8588 76.3633 18.6833 76.3926C18.5079 76.4218 18.391 76.4511 18.3032 76.4803V81.4542H16.8413V75.5441C17.1337 75.4271 17.4846 75.3393 17.8939 75.2515C18.3032 75.1637 18.7711 75.1052 19.2973 75.1052C19.3851 75.1052 19.502 75.1052 19.6482 75.1345C19.7652 75.1345 19.9114 75.1637 20.0283 75.193C20.1453 75.2223 20.2915 75.2223 20.4084 75.2515C20.5254 75.2808 20.6131 75.31 20.7008 75.3393L20.4084 76.5096Z" fill="#DFDFDF"/>
<path d="M26.6951 80.5472C26.4904 80.2253 26.2565 79.9035 25.9933 79.6109C25.7594 79.2891 25.4963 78.9965 25.2331 78.7039C24.97 78.4113 24.7068 78.1773 24.4729 77.9725C24.9115 77.5336 25.3793 77.0655 25.8179 76.5974C26.2565 76.1292 26.6951 75.6611 27.0752 75.2222H25.3501C25.2331 75.3685 25.0577 75.5441 24.8823 75.7489C24.7068 75.9537 24.5022 76.1585 24.2975 76.3633C24.0928 76.5681 23.8881 76.8022 23.6835 77.007C23.4788 77.2118 23.2741 77.4166 23.0987 77.6214V72.2965V72.2087V67.2934C23.1864 67.2641 23.3326 67.2641 23.5373 67.2349C23.742 67.2056 23.9174 67.2056 24.1221 67.2056C24.356 67.2056 24.5899 67.2349 24.7653 67.2934C24.9407 67.3519 25.0869 67.4689 25.1746 67.6152C25.2624 67.7615 25.3501 67.937 25.3793 68.1711C25.4086 68.4052 25.4378 68.6977 25.4378 69.0196V72.2672H26.8997V68.7855C26.8997 68.3759 26.8705 67.9956 26.7828 67.6445C26.6951 67.2934 26.5489 67.0008 26.3442 66.7375C26.1395 66.4742 25.8764 66.2986 25.5255 66.1523C25.1746 66.006 24.7653 65.9475 24.239 65.9475C23.6835 65.9475 23.1864 65.9768 22.7478 66.0645C22.3093 66.1231 21.9292 66.2108 21.666 66.2986V72.0624V72.2965V81.3956H23.1279V78.5576C23.3326 78.7039 23.5665 78.9087 23.8004 79.1428C24.0343 79.3769 24.239 79.6109 24.4729 79.845C24.6776 80.1083 24.8823 80.3716 25.0869 80.6349C25.2624 80.8983 25.4378 81.1616 25.584 81.3956H27.2798C27.1044 81.1616 26.929 80.869 26.6951 80.5472Z" fill="#DFDFDF"/>
</svg>
