<svg width="643" height="633" viewBox="0 0 643 633" fill="none" xmlns="http://www.w3.org/2000/svg">
<path d="M408.032 220.679C420.903 220.677 430.599 231.187 429.539 243.991C428.104 261.327 406.666 270.008 393.854 258.442C382.256 247.971 384.833 229.566 398.873 222.599C401.451 221.321 404.507 220.679 408.032 220.679Z" fill="#121212"/>
<path fill-rule="evenodd" clip-rule="evenodd" d="M287.223 1.13672C304.608 -0.837661 349.458 -0.125636 366.155 2.3887C438.062 13.2132 499.945 44.328 550.466 95.0585C618.22 163.094 651.717 257.9 641.05 351.431C629.61 451.728 569.247 541.712 479.739 591.892C435.919 616.46 391.175 629.379 339.33 632.44C216.112 639.712 99.3098 575.741 39.4259 468.188C19.6183 432.613 7.53346 396.25 2.10581 355.893C0.074411 340.786 -0.657921 308.539 0.66998 292.641C9.13792 191.228 66.4051 99.3632 154.396 46.043C194.952 21.467 238.82 6.63329 287.223 1.13672ZM345.575 26.3684C333.407 25.2786 308.965 25.3219 295.727 26.4567C258.893 29.6139 221.556 40.3747 187.799 57.5643C125.071 89.5078 76.9377 141.076 49.2316 206.013C20.122 274.239 18.8775 349.993 45.7282 419.376C47.7284 424.543 49.6428 428.754 49.9821 428.735C50.3253 428.707 53.7903 422.215 57.6858 414.299C66.8288 395.723 79.5036 373.973 93.593 352.683C119.418 313.661 142.499 284.707 172.782 253.346L187.711 237.884L185.019 235.93C169.549 224.677 152.856 202.652 146.206 184.717C141.848 172.968 140.282 156.497 142.576 146.528C147.343 125.801 166.348 112.996 189.92 114.626C199.832 115.31 209.238 117.933 218.629 122.629C238.398 132.516 254.195 147.343 264.84 165.703L273.11 157.869C262.732 146.027 259.013 135.508 259.904 121.673C260.474 112.823 262.868 105.078 267.049 98.5494C270.448 93.2403 273.79 90.5305 281.04 87.2048C291.551 82.3818 306.703 84.2849 319.883 92.0821C337.692 102.618 356.756 128.297 363.096 150.292L365.133 157.366L375.709 159.789C434.992 173.375 499.577 199.152 548.628 228.802C576.409 245.594 587.459 254.642 592.239 264.514C594.422 269.024 594.76 270.825 594.751 277.971C594.742 285.222 594.404 286.946 591.967 292.188C588.484 299.678 581.135 307.692 570.284 315.834C565.67 319.296 554.673 327.512 545.849 334.091C513.175 358.447 494.506 379.946 480.061 409.855C472.95 424.579 468.699 435.696 464.071 451.655C453.651 487.595 448.562 534.517 451.731 565.47C452.265 570.68 452.859 575.1 453.048 575.29C453.907 576.122 479.55 561.194 491.662 552.812C546.264 515.025 587.641 457.426 605.433 394.432C613.928 364.36 616.771 342.03 616.051 311.022C615.015 266.438 606.414 231.379 586.576 190.885C561.185 139.053 523.092 97.7382 472.713 67.3843C434.213 44.1882 391.82 30.511 345.575 26.3684ZM372.102 179.429C345.734 174.105 310.263 170.439 294.655 171.383C286.303 173.867 279.025 177.471 272.513 181.856C273.408 184.214 274.235 186.613 274.978 189.053C279.039 202.373 286.109 231.493 292.067 259.441C293.955 268.293 294.016 269.283 292.664 268.873C288.957 267.746 272.49 263.288 245.354 256.061C229.22 251.764 215.39 248.003 214.624 247.708C213.651 247.337 211.014 249.899 205.928 256.157C166.506 304.666 126.324 374.695 96.6255 446.647C86.3411 471.563 84.6808 476.448 85.9659 478C87.9709 480.42 96.0394 483.92 104.658 486.111C118.641 489.666 133.457 490.719 151.903 489.468C192.237 486.733 224.172 477.837 261.428 458.959C286.539 446.235 309.37 431.707 348.022 403.853C415.348 355.334 463.211 329.875 529.882 307.124C560.571 296.652 569.021 292.159 572.517 284.446C577.291 273.911 572.895 267.384 551.377 253.05C503.571 221.205 430.609 191.243 372.102 179.429Z" fill="#121212"/>
<path d="M295.727 26.4567C308.965 25.3219 333.407 25.2786 345.575 26.3684C391.82 30.511 434.213 44.1882 472.713 67.3843C523.092 97.7382 561.185 139.053 586.576 190.885C606.414 231.379 615.015 266.438 616.051 311.022C616.771 342.03 613.928 364.36 605.433 394.432C587.641 457.426 546.264 515.025 491.662 552.812C479.55 561.194 453.907 576.122 453.048 575.29C452.859 575.1 452.265 570.68 451.731 565.47C448.562 534.517 453.651 487.595 464.071 451.655C468.699 435.696 472.95 424.579 480.061 409.855C494.506 379.946 513.175 358.447 545.849 334.091C554.673 327.512 565.67 319.296 570.284 315.834C581.135 307.692 588.484 299.678 591.967 292.188C594.404 286.946 594.742 285.222 594.751 277.971C594.76 270.825 594.422 269.024 592.239 264.514C587.459 254.642 576.409 245.594 548.628 228.802C499.577 199.152 434.992 173.375 375.709 159.789L365.133 157.366L363.096 150.292C356.756 128.297 337.692 102.618 319.883 92.0821C306.703 84.2849 291.551 82.3818 281.04 87.2048C273.79 90.5305 270.448 93.2403 267.049 98.5494C262.868 105.078 260.474 112.823 259.904 121.673C259.013 135.508 262.732 146.027 273.11 157.869L264.84 165.703C254.195 147.343 238.398 132.516 218.629 122.629C209.238 117.933 199.832 115.31 189.92 114.626C166.348 112.996 147.343 125.801 142.576 146.528C140.282 156.497 141.848 172.968 146.206 184.717C152.856 202.652 169.549 224.677 185.019 235.93L187.711 237.884L172.782 253.346C142.499 284.707 119.418 313.661 93.593 352.683C79.5036 373.973 66.8288 395.723 57.6858 414.299C53.7903 422.215 50.3253 428.707 49.9821 428.735C49.6367 428.736 47.724 424.531 45.7282 419.376C18.8775 349.993 20.122 274.239 49.2316 206.013C76.9377 141.076 125.071 89.5078 187.799 57.5643C221.556 40.3747 258.893 29.6139 295.727 26.4567Z" fill="#D9D9D9"/>
<path d="M295.727 26.4567C308.965 25.3219 333.407 25.2786 345.575 26.3684C391.82 30.511 434.213 44.1882 472.713 67.3843C523.092 97.7382 561.185 139.053 586.576 190.885C606.414 231.379 615.015 266.438 616.051 311.022C616.771 342.03 613.928 364.36 605.433 394.432C587.641 457.426 546.264 515.025 491.662 552.812C479.55 561.194 453.907 576.122 453.048 575.29C452.859 575.1 452.265 570.68 451.731 565.47C448.562 534.517 453.651 487.595 464.071 451.655C468.699 435.696 472.95 424.579 480.061 409.855C494.506 379.946 513.175 358.447 545.849 334.091C554.673 327.512 565.67 319.296 570.284 315.834C581.135 307.692 588.484 299.678 591.967 292.188C594.404 286.946 594.742 285.222 594.751 277.971C594.76 270.825 594.422 269.024 592.239 264.514C587.459 254.642 576.409 245.594 548.628 228.802C499.577 199.152 434.992 173.375 375.709 159.789L365.133 157.366L363.096 150.292C356.756 128.297 337.692 102.618 319.883 92.0821C306.703 84.2849 291.551 82.3818 281.04 87.2048C273.79 90.5305 270.448 93.2403 267.049 98.5494C262.868 105.078 260.474 112.823 259.904 121.673C259.013 135.508 262.732 146.027 273.11 157.869L264.84 165.703C254.195 147.343 238.398 132.516 218.629 122.629C209.238 117.933 199.832 115.31 189.92 114.626C166.348 112.996 147.343 125.801 142.576 146.528C140.282 156.497 141.848 172.968 146.206 184.717C152.856 202.652 169.549 224.677 185.019 235.93L187.711 237.884L172.782 253.346C142.499 284.707 119.418 313.661 93.593 352.683C79.5036 373.973 66.8288 395.723 57.6858 414.299C53.7903 422.215 50.3253 428.707 49.9821 428.735C49.6367 428.736 47.724 424.531 45.7282 419.376C18.8775 349.993 20.122 274.239 49.2316 206.013C76.9377 141.076 125.071 89.5078 187.799 57.5643C221.556 40.3747 258.893 29.6139 295.727 26.4567Z" fill="url(#paint0_linear_130_153)"/>
<path fill-rule="evenodd" clip-rule="evenodd" d="M294.655 171.383C310.263 170.439 345.734 174.105 372.102 179.429C430.609 191.243 503.571 221.205 551.377 253.05C572.895 267.384 577.291 273.911 572.517 284.446C569.021 292.159 560.571 296.652 529.882 307.124C463.211 329.875 415.348 355.334 348.022 403.853C309.37 431.707 286.539 446.235 261.428 458.959C224.172 477.837 192.237 486.733 151.903 489.468C133.457 490.719 118.641 489.666 104.658 486.111C96.0394 483.92 87.9709 480.42 85.9659 478C84.6808 476.448 86.3411 471.563 96.6255 446.647C126.324 374.695 166.506 304.666 205.928 256.157C211.014 249.899 213.651 247.337 214.624 247.708C215.39 248.003 229.22 251.764 245.354 256.061C272.49 263.288 288.957 267.746 292.664 268.873C294.016 269.283 293.955 268.293 292.067 259.441C286.109 231.493 279.039 202.373 274.978 189.053C274.235 186.613 273.408 184.214 272.513 181.856C279.025 177.471 286.303 173.867 294.655 171.383ZM408.032 220.679C404.507 220.679 401.451 221.321 398.873 222.599C384.833 229.566 382.256 247.971 393.854 258.442C406.666 270.008 428.104 261.327 429.539 243.991C430.599 231.187 420.903 220.677 408.032 220.679Z" fill="#F4F4F4"/>
<defs>
<linearGradient id="paint0_linear_130_153" x1="19.3605" y1="303.372" x2="633.991" y2="303.372" gradientUnits="userSpaceOnUse">
<stop stop-color="#FA494C"/>
<stop offset="0.326923" stop-color="#FFE38E"/>
<stop offset="0.668269" stop-color="#5ED5EF"/>
<stop offset="1" stop-color="#7EE8CC"/>
</linearGradient>
</defs>
</svg>
