<svg preserveAspectRatio="none" width="100%" height="100%" overflow="visible" style="display: block;" viewBox="0 0 296.701 43.3913" fill="none" xmlns="http://www.w3.org/2000/svg">
<g id="Group">
<path id="Vector" d="M79.4074 34.9996V30.207C78.8138 31.0147 78.1154 31.7558 77.3026 32.4258C73.8096 35.3146 68.2349 36.8412 61.1854 36.8412C56.8387 36.8412 50.6385 36.1713 45.808 32.9894C42.8631 31.0503 41.1921 28.1435 40.722 24.1585C40.6303 24.904 40.5803 25.6806 40.5803 26.5016C40.5803 26.8344 40.5896 27.1583 40.5985 27.4779C40.5896 27.7353 40.5803 27.9927 40.5803 28.2589C40.5803 33.5309 42.2923 37.2187 45.808 39.5393C50.6385 42.7257 56.8344 43.3913 61.1854 43.3913C68.2349 43.3913 73.8096 41.8647 77.3026 38.9759C78.1154 38.3056 78.8138 37.5646 79.4074 36.7569V42.952H94.7485V36.4019H79.4074V34.9996Z" fill="var(--fill-0, #0000FF)"/>
<path id="Vector_2" d="M155.098 11.3426C156.172 10.353 157.537 9.50543 159.19 8.80873C162.741 7.31323 167.089 6.5544 172.111 6.5544C177.393 6.5544 181.932 7.40199 185.607 9.07053C187.552 9.95364 188.976 10.9654 189.88 12.0926C190.255 11.6932 190.656 11.316 191.091 10.9565C194.601 8.0765 200.162 6.5544 207.179 6.5544C213.426 6.5544 218.604 7.80579 222.143 10.1711C222.987 10.7302 223.727 11.3604 224.379 12.0438C224.741 11.6621 225.128 11.2982 225.548 10.9565C229.06 8.0765 234.621 6.5544 241.639 6.5544C247.843 6.5544 252.81 7.7703 256.404 10.1711C257.285 10.7613 258.065 11.4181 258.75 12.1414C259.133 11.7243 259.549 11.3293 260.006 10.9565C263.516 8.0765 269.078 6.5544 276.096 6.5544C282.342 6.5544 287.514 7.80579 291.054 10.1711C294.007 12.1414 295.773 14.8617 296.418 18.4339C296.605 17.4133 296.697 16.3217 296.697 15.1546C296.697 9.92256 294.851 6.15057 291.048 3.61666C287.509 1.25141 282.337 0 276.09 0C269.073 0 263.512 1.52211 260.002 4.40213C259.549 4.77489 259.133 5.16986 258.746 5.587C258.061 4.86366 257.285 4.20689 256.399 3.61666C252.81 1.21591 247.839 0 241.633 0C234.615 0 229.054 1.52211 225.544 4.40213C225.124 4.74826 224.735 5.11217 224.374 5.48937C223.722 4.80153 222.983 4.17583 222.137 3.61666C218.598 1.25141 213.422 0 207.175 0C200.158 0 194.597 1.52211 191.086 4.40213C190.648 4.7616 190.246 5.1388 189.876 5.53817C188.972 4.41547 187.552 3.40366 185.602 2.51614C181.927 0.84759 177.389 0 172.107 0C166.823 0 162.737 0.758836 159.186 2.25432C157.532 2.95104 156.168 3.79863 155.094 4.7882V0.612393H111.304V7.16236H155.094V11.3382L155.098 11.3426Z" fill="var(--fill-0, #FF0000)"/>
<path id="Vector_3" d="M47.4426 9.44304C50.8945 7.54817 55.6107 6.55857 61.2678 6.55857C67.5181 6.55857 72.6913 7.80997 76.2296 10.1752C77.5082 11.0273 78.5627 12.0257 79.4029 13.1707V7.16654H93.269L111.299 21.3048V14.7549L93.269 0.616574H79.4029V6.6207C78.5627 5.47577 77.5082 4.47731 76.2296 3.62531C72.6913 1.26003 67.5181 0.00861325 61.2678 0.00861325C55.6063 0.00861325 50.8945 0.998206 47.4426 2.89308V0.616574H2.165e-07V7.16654H47.4426V9.44304Z" fill="var(--fill-0, #FF0000)"/>
<path id="Vector_4" d="M210.185 19.0377C208.695 17.9106 207.445 17.9106 206.906 17.9106C205.993 17.9106 205.038 18.2921 204.071 19.051C203.477 19.5126 202.245 20.8527 201.819 24.1011C202.245 27.3761 203.491 28.6984 204.085 29.1511C205.573 30.2827 206.765 30.2827 207.276 30.2827C208.226 30.2827 209.203 29.8966 210.179 29.1377C210.859 28.6097 211.91 27.2873 212.271 24.0834C211.914 20.8572 210.859 19.5481 210.185 19.0333V19.0377Z" fill="var(--fill-0, #FF0000)"/>
<path id="Vector_5" d="M172.804 28.6184C172.434 28.6184 171.572 28.6538 169.959 28.8758L168.605 29.0621C169.914 30.2736 171.485 30.2824 172.211 30.2824C173.16 30.2824 174.438 30.1892 175.909 29.457C176 29.4126 176.082 29.3594 176.17 29.3105C175.182 28.8224 174.178 28.6138 172.804 28.6138V28.6184Z" fill="var(--fill-0, #0000FF)"/>
<path id="Vector_6" d="M153.291 22.6672V24.4246V24.8151V25.8312L164.403 25.0502L164.458 24.8461L163.212 25.0192L163.806 22.6495L153.291 21.6643V22.6672Z" fill="var(--fill-0, #0000FF)"/>
<path id="Vector_7" d="M244.642 19.0377C243.153 17.9106 241.903 17.9106 241.364 17.9106C240.45 17.9106 239.496 18.2921 238.528 19.051C237.934 19.5126 236.703 20.8527 236.277 24.1011C236.703 27.3761 237.949 28.6984 238.543 29.1511C240.03 30.2827 241.223 30.2827 241.733 30.2827C242.684 30.2827 243.659 29.8966 244.637 29.1377C245.317 28.6097 246.368 27.2873 246.728 24.0834C246.372 20.8572 245.317 19.5481 244.642 19.0333V19.0377Z" fill="var(--fill-0, #FF0000)"/>
<path id="Vector_8" d="M279.094 19.0377C277.606 17.9106 276.355 17.9106 275.817 17.9106C274.904 17.9106 273.949 18.2921 272.982 19.051C272.388 19.5126 271.154 20.8527 270.73 24.1011C271.154 27.3761 272.402 28.6984 272.994 29.1511C274.484 30.2827 275.676 30.2827 276.186 30.2827C277.137 30.2827 278.113 29.8966 279.09 29.1377C279.77 28.6097 280.821 27.2873 281.182 24.0834C280.825 20.8572 279.77 19.5481 279.094 19.0333V19.0377Z" fill="var(--fill-0, #FF0000)"/>
<path id="Vector_9" d="M64.2764 19.0377C62.7881 17.9106 61.5368 17.9106 60.9984 17.9106C60.0852 17.9106 59.131 18.2921 58.1629 19.051C57.4917 19.5791 56.4416 20.9015 56.0856 24.1011C56.4416 27.3227 57.4962 28.6363 58.1766 29.1511C59.665 30.2827 60.8568 30.2827 61.3681 30.2827C62.3178 30.2827 63.2949 29.8966 64.2719 29.1377C64.9521 28.6097 66.0022 27.2873 66.3586 24.0834C66.0022 20.8572 64.9477 19.5481 64.2719 19.0333L64.2764 19.0377Z" fill="var(--fill-0, #FF0000)"/>
<path id="Vector_10" d="M15.8888 14.1072H0V18.8999V20.6571H15.8888V18.8999V14.1072Z" fill="var(--fill-0, #0000FF)"/>
<path id="Vector_11" d="M15.8886 41.1946V42.952H31.4715V41.1946V36.4019H15.8886V41.1946Z" fill="var(--fill-0, #0000FF)"/>
<path id="Vector_12" d="M42.4476 14.1072H31.4761V20.6571H40.612C40.74 18.1189 41.3518 15.9489 42.4476 14.1072Z" fill="var(--fill-0, #0000FF)"/>
<path id="Vector_13" d="M292.121 32.4257C288.628 35.3144 283.053 36.8411 276.004 36.8411C271.652 36.8411 265.456 36.1712 260.627 32.9893C259.924 32.5277 259.297 32.0041 258.737 31.4317C258.403 31.7778 258.047 32.1107 257.664 32.4257C254.17 35.3144 248.595 36.8411 241.546 36.8411C237.195 36.8411 231 36.1712 226.169 32.9893C225.466 32.5277 224.841 32.0041 224.278 31.4317C223.946 31.7778 223.589 32.1107 223.206 32.4257C219.713 35.3144 214.138 36.8411 207.089 36.8411C202.737 36.8411 196.541 36.1712 191.711 32.9893C191.283 32.7052 190.88 32.399 190.501 32.0751C189.638 32.7496 188.588 33.3754 187.347 33.9478C183.206 35.8648 178.147 36.8411 172.307 36.8411C166.818 36.8411 162.102 35.9714 158.294 34.2584C157.532 33.9167 156.838 33.5485 156.213 33.1577V36.4018H112.728L94.7392 22.2679V28.8178L112.728 42.9517H156.213V39.7078C156.838 40.0985 157.532 40.4668 158.294 40.8085C162.102 42.5215 166.814 43.3912 172.307 43.3912C178.147 43.3912 183.21 42.4192 187.347 40.4978C188.588 39.9208 189.638 39.2952 190.501 38.6252C190.875 38.9491 191.283 39.2552 191.711 39.5391C196.541 42.7254 202.737 43.3912 207.089 43.3912C214.138 43.3912 219.713 41.8645 223.206 38.9758C223.589 38.6605 223.946 38.3277 224.278 37.9815C224.835 38.5541 225.466 39.0778 226.169 39.5391C231 42.7254 237.195 43.3912 241.546 43.3912C248.595 43.3912 254.17 41.8645 257.664 38.9758C258.047 38.6605 258.403 38.3277 258.737 37.9815C259.293 38.5541 259.924 39.0778 260.627 39.5391C265.456 42.7254 271.652 43.3912 276.004 43.3912C283.053 43.3912 288.628 41.8645 292.121 38.9758C295.199 36.4329 296.691 32.9272 296.691 28.2588C296.691 27.9659 296.682 27.6774 296.672 27.3933C296.687 27.1006 296.691 26.8032 296.691 26.5015C296.691 25.6672 296.641 24.8728 296.545 24.1096C296.102 27.6021 294.646 30.34 292.121 32.4257Z" fill="var(--fill-0, #0000FF)"/>
<path id="Vector_14" d="M166.472 24.9086L167.197 26.8701C167.567 27.8684 168.06 28.5652 168.603 29.0666L169.96 28.8803C171.566 28.6584 172.435 28.6229 172.804 28.6229C174.174 28.6229 175.182 28.8315 176.17 29.3196C177.274 28.6984 177.817 27.8907 177.817 26.8567C177.817 25.8227 177.278 25.0728 176.165 24.5269C175.178 24.0388 174.174 23.8302 172.799 23.8302C172.43 23.8302 171.566 23.8657 169.955 24.0876L164.454 24.8509L164.403 25.0551L166.468 24.9086H166.472Z" fill="var(--fill-0, #0000FF)"/>
<path id="Vector_15" d="M153.039 14.1072H126.608V17.8792H153.291V21.669L163.806 22.654L164.979 17.9724L152.062 16.7653L152.697 14.937C152.793 14.6575 152.908 14.3823 153.035 14.1161L153.039 14.1072Z" fill="var(--fill-0, #0000FF)"/>
<path id="Vector_16" d="M210.185 14.2448C208.695 13.1176 207.445 13.1176 206.906 13.1176C205.993 13.1176 205.038 13.4992 204.071 14.2581C203.349 14.8216 201.673 16.6766 201.673 21.7044C201.673 22.6053 201.729 23.3995 201.819 24.1052C202.245 20.8569 203.477 19.5167 204.071 19.0551C205.038 18.3007 205.993 17.9146 206.906 17.9146C207.44 17.9146 208.695 17.9146 210.185 19.0419C210.861 19.5565 211.914 20.8613 212.271 24.0918C212.349 23.3907 212.394 22.6008 212.394 21.7088C212.394 16.681 211.011 14.8793 210.185 14.2536V14.2448Z" fill="var(--fill-0, #0000FF)"/>
<path id="Vector_17" d="M126.608 24.8151V29.4658H152.619C152.35 28.9199 152.158 28.3519 152.049 27.7572L151.715 25.9422L153.291 25.8314V24.8151H126.608Z" fill="var(--fill-0, #0000FF)"/>
<path id="Vector_18" d="M64.2763 14.2448C62.7879 13.1176 61.5368 13.1176 60.998 13.1176C60.0851 13.1176 59.1306 13.4992 58.1628 14.2581C57.3411 14.9015 55.962 16.7209 55.962 21.7044C55.962 22.6053 56.0077 23.3995 56.0855 24.1052C56.4414 20.9057 57.4872 19.5832 58.1628 19.0551C59.1306 18.3007 60.0851 17.9146 60.998 17.9146C61.5323 17.9146 62.7879 17.9146 64.2763 19.0419C64.9519 19.5565 66.0068 20.8613 66.3628 24.0918C66.4403 23.3907 66.486 22.6008 66.486 21.7088C66.486 16.681 65.1028 14.8793 64.2763 14.2536V14.2448Z" fill="var(--fill-0, #0000FF)"/>
<path id="Vector_19" d="M174.521 13.5706C173.832 13.2467 173.16 13.1135 172.211 13.1135C171.193 13.1135 170.48 13.2555 169.75 13.6061C169.097 13.9212 168.234 14.5913 167.832 16.0158L167.453 17.3692L170.365 17.4757C172.572 17.458 173.631 17.1207 174.238 16.8633C174.844 16.6059 175.649 16.1534 175.649 15.1326C175.649 14.1119 174.799 13.6949 174.521 13.5618V13.5706Z" fill="var(--fill-0, #0000FF)"/>
<path id="Vector_20" d="M244.642 14.2448C243.153 13.1176 241.903 13.1176 241.364 13.1176C240.45 13.1176 239.496 13.4992 238.528 14.2581C237.807 14.8216 236.131 16.6766 236.131 21.7044C236.131 22.6053 236.186 23.3995 236.278 24.1052C236.703 20.8569 237.934 19.5167 238.528 19.0551C239.496 18.3007 240.45 17.9146 241.364 17.9146C241.899 17.9146 243.153 17.9146 244.642 19.0419C245.317 19.5565 246.372 20.8613 246.728 24.0918C246.806 23.3907 246.851 22.6008 246.851 21.7088C246.851 16.681 245.468 14.8793 244.642 14.2536V14.2448Z" fill="var(--fill-0, #0000FF)"/>
<path id="Vector_21" d="M279.094 14.2448C277.607 13.1176 276.355 13.1176 275.818 13.1176C274.904 13.1176 273.949 13.4992 272.982 14.2581C272.261 14.8216 270.585 16.6766 270.585 21.7044C270.585 22.6053 270.64 23.3995 270.73 24.1052C271.156 20.8569 272.388 19.5167 272.982 19.0551C273.949 18.3007 274.904 17.9146 275.818 17.9146C276.351 17.9146 277.607 17.9146 279.094 19.0419C279.77 19.5565 280.826 20.8613 281.182 24.0918C281.26 23.3907 281.305 22.6008 281.305 21.7088C281.305 16.681 279.922 14.8793 279.094 14.2536V14.2448Z" fill="var(--fill-0, #0000FF)"/>
<path id="Vector_22" d="M296.408 18.4383C295.764 14.866 293.998 12.1413 291.044 10.1755C287.505 7.81021 282.332 6.55878 276.086 6.55878C269.068 6.55878 263.507 8.08091 259.997 10.9609C259.545 11.3337 259.129 11.7286 258.741 12.1458C258.055 11.4224 257.28 10.7657 256.394 10.1755C252.806 7.7747 247.833 6.55878 241.628 6.55878C234.611 6.55878 229.05 8.08091 225.54 10.9609C225.119 11.3071 224.731 11.6709 224.37 12.0481C223.718 11.3603 222.977 10.7346 222.133 10.1755C218.594 7.81021 213.416 6.55878 207.171 6.55878C200.153 6.55878 194.592 8.08091 191.08 10.9609C190.643 11.3204 190.24 11.6976 189.871 12.097C188.968 10.9742 187.548 9.96244 185.597 9.07494C181.922 7.40638 177.385 6.55878 172.101 6.55878C166.818 6.55878 162.733 7.31761 159.18 8.8131C157.528 9.50981 156.162 10.3574 155.09 11.347V7.17117H111.299V21.3096L93.269 7.17117H79.4029V13.1753C78.5627 12.0304 77.5082 11.0319 76.2296 10.1799C72.6913 7.81465 67.5181 6.5632 61.2678 6.5632C55.6063 6.5632 50.8945 7.55281 47.4426 9.44768V7.17117H0V14.1116H15.8888V36.4062H31.4717V14.1116H42.4433C41.3428 15.9533 40.7357 18.1233 40.6078 20.6617C40.5896 21.0078 40.5804 21.3538 40.5804 21.7134C40.5804 22.5743 40.6307 23.3864 40.7219 24.163C41.1922 28.1479 42.8635 31.0502 45.808 32.9938C50.6386 36.1799 56.8345 36.8456 61.1855 36.8456C68.235 36.8456 73.81 35.3192 77.3027 32.4303C78.1155 31.7601 78.8142 31.0191 79.4075 30.2115V36.4062H94.7485V22.2725L112.738 36.4062H156.221V33.1625C156.848 33.5528 157.541 33.9212 158.304 34.2629C162.112 35.9759 166.823 36.8456 172.316 36.8456C178.155 36.8456 183.218 35.8738 187.355 33.9521C188.597 33.3756 189.648 32.7497 190.51 32.0797C190.885 32.4036 191.291 32.7098 191.721 32.9938C196.551 36.1799 202.747 36.8456 207.097 36.8456C214.147 36.8456 219.723 35.3192 223.214 32.4303C223.599 32.1151 223.954 31.7824 224.288 31.4362C224.845 32.0087 225.474 32.5323 226.179 32.9938C231.009 36.1799 237.205 36.8456 241.555 36.8456C248.605 36.8456 254.18 35.3192 257.672 32.4303C258.055 32.1151 258.412 31.7824 258.746 31.4362C259.303 32.0087 259.932 32.5323 260.636 32.9938C265.466 36.1799 271.662 36.8456 276.013 36.8456C283.063 36.8456 288.638 35.3192 292.13 32.4303C294.656 30.3446 296.112 27.6065 296.555 24.1142C296.651 23.3508 296.701 22.552 296.701 21.7134C296.701 20.5507 296.605 19.4635 296.422 18.4428L296.408 18.4383ZM164.978 17.9635L163.806 22.6452L163.212 25.0149L164.454 24.8418L169.955 24.0785C171.562 23.8568 172.43 23.8211 172.799 23.8211C174.17 23.8211 175.178 24.0297 176.165 24.5179C177.278 25.0681 177.817 25.8315 177.817 26.8477C177.817 27.8639 177.274 28.6893 176.17 29.3106C176.082 29.3594 176 29.4082 175.909 29.457C174.439 30.1848 173.16 30.2824 172.211 30.2824C171.486 30.2824 169.91 30.278 168.605 29.0621C168.066 28.5606 167.572 27.8639 167.197 26.8654L166.472 24.904L164.408 25.0504L153.295 25.8315L151.719 25.9424L152.053 27.7574C152.164 28.352 152.354 28.9201 152.623 29.4659H126.613V24.8153H153.295V17.8748H126.613V14.1028H153.043C152.916 14.369 152.801 14.6441 152.707 14.9238L152.072 16.752L164.988 17.9591L164.978 17.9635ZM174.238 16.8674C173.631 17.1248 172.576 17.462 170.367 17.4798L167.453 17.3734L167.832 16.0198C168.23 14.5953 169.093 13.9253 169.75 13.6103C170.48 13.2596 171.193 13.1176 172.211 13.1176C173.16 13.1176 173.832 13.2507 174.521 13.5746C174.799 13.7077 175.649 14.1028 175.649 15.1456C175.649 16.1885 174.846 16.6189 174.238 16.8763V16.8674ZM212.271 24.0831C211.914 27.287 210.861 28.6094 210.18 29.1374C209.203 29.8963 208.222 30.2824 207.275 30.2824C206.765 30.2824 205.573 30.2824 204.085 29.1508C203.487 28.6981 202.245 27.3713 201.819 24.1008C201.729 23.3952 201.673 22.6008 201.673 21.7001C201.673 16.6721 203.349 14.8216 204.071 14.2536C205.039 13.4993 205.993 13.1132 206.906 13.1132C207.439 13.1132 208.695 13.1132 210.185 14.2403C211.011 14.866 212.394 16.6677 212.394 21.6955C212.394 22.592 212.348 23.3774 212.271 24.0785V24.0831ZM246.728 24.0831C246.372 27.287 245.318 28.6094 244.638 29.1374C243.661 29.8963 242.679 30.2824 241.733 30.2824C241.223 30.2824 240.03 30.2824 238.542 29.1508C237.944 28.6981 236.702 27.3713 236.278 24.1008C236.186 23.3952 236.131 22.6008 236.131 21.7001C236.131 16.6721 237.807 14.8216 238.528 14.2536C239.496 13.4993 240.45 13.1132 241.364 13.1132C241.899 13.1132 243.153 13.1132 244.642 14.2403C245.468 14.866 246.851 16.6677 246.851 21.6955C246.851 22.592 246.806 23.3774 246.728 24.0785V24.0831ZM281.182 24.0831C280.825 27.287 279.77 28.6094 279.09 29.1374C278.114 29.8963 277.131 30.2824 276.187 30.2824C275.676 30.2824 274.484 30.2824 272.996 29.1508C272.398 28.6981 271.156 27.3713 270.73 24.1008C270.64 23.3952 270.585 22.6008 270.585 21.7001C270.585 16.6721 272.26 14.8216 272.982 14.2536C273.949 13.4993 274.904 13.1132 275.817 13.1132C276.351 13.1132 277.606 13.1132 279.096 14.2403C279.922 14.866 281.305 16.6677 281.305 21.6955C281.305 22.592 281.26 23.3774 281.182 24.0785V24.0831ZM66.3631 24.0831C66.0071 27.287 64.9522 28.6094 64.2766 29.1374C63.2995 29.8963 62.3179 30.2824 61.3728 30.2824C60.8614 30.2824 59.6697 30.2824 58.1812 29.1508C57.5012 28.636 56.4463 27.3224 56.0901 24.1008C56.0126 23.3952 55.9671 22.6008 55.9671 21.7001C55.9671 16.7209 57.3457 14.8971 58.1674 14.2536C59.1357 13.4993 60.0897 13.1132 61.0031 13.1132C61.537 13.1132 62.7926 13.1132 64.281 14.2403C65.1075 14.866 66.4911 16.6677 66.4911 21.6955C66.4911 22.592 66.4454 23.3774 66.3676 24.0785L66.3631 24.0831Z" fill="var(--fill-0, #FFFF00)"/>
</g>
</svg>
