<svg preserveAspectRatio="none" width="100%" height="100%" overflow="visible" style="display: block;" viewBox="0 0 178.85 27.8203" fill="none" xmlns="http://www.w3.org/2000/svg">
<g id="WM_horizontal_color">
<g id="Group 796">
<path id="Subtract" d="M13.6623 0.0444609C14.334 -0.0129677 15.5741 -0.0151071 16.1915 0.0400494C18.5379 0.249692 20.6888 0.941784 22.6422 2.11565C25.1983 3.65174 27.131 5.74255 28.4192 8.36556C29.4258 10.4148 29.8621 12.189 29.9147 14.4452C29.9512 16.0145 29.807 17.1445 29.376 18.6663C28.4732 21.8542 26.374 24.769 23.6036 26.6812C22.989 27.1054 21.6876 27.861 21.6444 27.8186C21.6347 27.809 21.6047 27.5854 21.5776 27.3218C21.4168 25.7554 21.6749 23.3809 22.2037 21.5621C22.4385 20.7545 22.6542 20.1919 23.015 19.4468C23.7479 17.9332 24.695 16.8452 26.3528 15.6126C26.8006 15.2797 27.3585 14.8639 27.5926 14.6887C28.1432 14.2767 28.5161 13.8711 28.6928 13.492C28.8164 13.2268 28.8335 13.1396 28.834 12.7727C28.8344 12.411 28.8174 12.3199 28.7066 12.0917C28.4641 11.592 27.9035 11.1341 26.4939 10.2843C24.0052 8.78382 20.7281 7.47944 17.7202 6.79193L17.1838 6.66935L17.0803 6.3113C16.7586 5.19821 15.7914 3.89866 14.8878 3.36548C14.2191 2.97088 13.4503 2.87462 12.9169 3.11871C12.5491 3.28701 12.3796 3.42418 12.2071 3.69286C11.995 4.02326 11.8736 4.41521 11.8447 4.86306C11.7995 5.56328 11.9882 6.0956 12.5148 6.69493L12.0954 7.0913C11.5553 6.16209 10.7535 5.41186 9.75042 4.91148C9.27396 4.67382 8.79666 4.54105 8.29375 4.5064C7.09778 4.42392 6.13369 5.07195 5.89181 6.12083C5.77543 6.62533 5.85484 7.45881 6.07591 8.05339C6.41335 8.96098 7.26032 10.0756 8.04521 10.645L8.1818 10.7441L7.42439 11.5264C5.88787 13.1135 4.71675 14.5788 3.40642 16.5535C2.69156 17.631 2.04852 18.7315 1.58463 19.6716C1.38703 20.0721 1.21122 20.4006 1.19371 20.4022C1.1765 20.4032 1.07941 20.19 0.977917 19.9285C-0.384432 16.4173 -0.321405 12.5837 1.15557 9.13101C2.56131 5.84484 5.00351 3.23534 8.18615 1.61881C9.89892 0.748895 11.7933 0.20423 13.6623 0.0444609Z" fill="url(#paint0_linear_0_54)"/>
<path id="Subtract_2" fill-rule="evenodd" clip-rule="evenodd" d="M13.6086 7.37851C14.4009 7.3309 16.1999 7.51643 17.5373 7.7858C20.5058 8.38364 24.2077 9.8999 26.6332 11.5115C27.7251 12.2369 27.9481 12.5671 27.7058 13.1003C27.5285 13.4906 27.0998 13.7181 25.5427 14.248C22.1599 15.3994 19.7315 16.6877 16.3155 19.143C14.3544 20.5526 13.196 21.2879 11.9219 21.9318C10.0317 22.8871 8.41133 23.3373 6.3649 23.4757C5.42896 23.539 4.67724 23.4857 3.96781 23.3058C3.53044 23.1949 3.12107 23.0177 3.0194 22.8952C2.9542 22.8167 3.03844 22.5695 3.56025 21.3086C5.06711 17.6674 7.10589 14.1236 9.1061 11.6687C9.36421 11.3519 9.49795 11.2223 9.54729 11.2413C9.58656 11.2563 10.288 11.4464 11.1064 11.6638C12.4832 12.0294 13.3187 12.2551 13.5068 12.3121C13.5754 12.3329 13.5723 12.2829 13.4765 11.835C13.1742 10.4206 12.8155 8.9469 12.6095 8.27283C12.5718 8.14932 12.53 8.02789 12.4846 7.9086C12.8152 7.68658 13.1846 7.5042 13.6086 7.37851ZM19.3604 9.87331C19.1815 9.87331 19.0265 9.90576 18.8957 9.97047C18.1833 10.323 18.0525 11.2545 18.641 11.7844C19.2911 12.3697 20.3788 11.9303 20.4516 11.053C20.5054 10.4051 20.0134 9.87324 19.3604 9.87331Z" fill="var(--fill-0, #DFDFDF)"/>
</g>
<path id="Vector" d="M43.1917 26.3925C42.9364 26.3925 42.7741 26.2747 42.7045 26.0393L36.5463 2.13319L36.5114 1.99195C36.5114 1.78007 36.639 1.67413 36.8942 1.67413H41.2085C41.4404 1.67413 41.5911 1.79185 41.6607 2.02725L44.9661 16.3993C44.9892 16.4934 45.0241 16.5405 45.0703 16.5405C45.1168 16.5405 45.1517 16.4934 45.1748 16.3993L48.3757 2.06256C48.4453 1.80361 48.596 1.67413 48.8279 1.67413H53.0379C53.2931 1.67413 53.4554 1.79185 53.525 2.02725L57.0042 16.3993C57.0273 16.4699 57.0622 16.5168 57.1087 16.5405C57.1549 16.5405 57.1898 16.4934 57.213 16.3993L60.4138 2.06256C60.4834 1.80361 60.6342 1.67413 60.8662 1.67413H64.9717C65.2964 1.67413 65.424 1.82716 65.3544 2.13319L59.6484 26.0393C59.5788 26.2747 59.4165 26.3925 59.1614 26.3925H55.021C54.7891 26.3925 54.6384 26.2747 54.5688 26.0393L51.0198 10.7493C50.9967 10.6551 50.962 10.608 50.9155 10.608C50.8691 10.608 50.8344 10.6551 50.8113 10.7493L47.5059 26.0039C47.4595 26.263 47.3087 26.3925 47.0535 26.3925H43.1917ZM70.6411 6.19406C69.8525 6.19406 69.1915 5.93511 68.658 5.41719C68.1477 4.87575 67.8927 4.20483 67.8927 3.40441C67.8927 2.58047 68.1477 1.90955 68.658 1.39164C69.1684 0.873738 69.8294 0.614785 70.6411 0.614785C71.453 0.614785 72.114 0.873738 72.6243 1.39164C73.1347 1.90955 73.3897 2.58047 73.3897 3.40441C73.3897 4.20483 73.123 4.87575 72.5896 5.41719C72.0793 5.93511 71.4299 6.19406 70.6411 6.19406ZM68.5537 26.3925C68.4376 26.3925 68.3333 26.3571 68.2406 26.2864C68.171 26.1923 68.1361 26.0865 68.1361 25.9687V8.63058C68.1361 8.51286 68.171 8.4187 68.2406 8.34807C68.3333 8.25391 68.4376 8.20684 68.5537 8.20684H72.6243C72.7403 8.20684 72.833 8.25391 72.9026 8.34807C72.9955 8.4187 73.0418 8.51286 73.0418 8.63058V25.9687C73.0418 26.0865 72.9955 26.1923 72.9026 26.2864C72.833 26.3571 72.7403 26.3925 72.6243 26.3925H68.5537ZM76.3083 26.3925C76.1923 26.3925 76.088 26.3571 75.9951 26.2864C75.9255 26.1923 75.8908 26.0865 75.8908 25.9687V22.1903C75.8908 22.0021 75.9604 21.8254 76.0996 21.6607L83.9277 12.9386C84.0438 12.7974 84.0207 12.7267 83.8582 12.7267H76.5171C76.4011 12.7267 76.2968 12.6914 76.2039 12.6208C76.1343 12.5266 76.0996 12.4207 76.0996 12.303V8.66589C76.0996 8.54817 76.1343 8.45401 76.2039 8.38338C76.2968 8.28922 76.4011 8.24215 76.5171 8.24215H89.5295C89.6453 8.24215 89.7382 8.28922 89.8078 8.38338C89.9005 8.45401 89.9468 8.54817 89.9468 8.66589V12.4089C89.9468 12.5737 89.8772 12.7503 89.7382 12.9386L81.6662 21.6607C81.5735 21.8019 81.5966 21.8726 81.7358 21.8726H89.7034C89.8194 21.8726 89.9121 21.9197 89.9817 22.0138C90.0744 22.0844 90.1209 22.1785 90.1209 22.2963V25.9687C90.1209 26.0865 90.0744 26.1923 89.9817 26.2864C89.9121 26.3571 89.8194 26.3925 89.7034 26.3925H76.3083ZM108.699 15.4457C108.838 16.3404 108.884 17.3409 108.838 18.4472C108.815 18.7297 108.664 18.871 108.385 18.871H97.6346C97.4955 18.871 97.4492 18.9299 97.4955 19.0477C97.565 19.5184 97.6927 19.9893 97.8783 20.46C98.4813 21.7785 99.7107 22.4376 101.566 22.4376C103.051 22.4139 104.222 21.8019 105.08 20.6013C105.173 20.46 105.277 20.3894 105.393 20.3894C105.463 20.3894 105.544 20.4365 105.637 20.5306L108.142 23.0378C108.258 23.1556 108.316 23.2614 108.316 23.3555C108.316 23.4027 108.269 23.4968 108.177 23.638C107.411 24.6033 106.425 25.3566 105.219 25.8981C104.013 26.416 102.691 26.675 101.253 26.675C99.2583 26.675 97.565 26.2158 96.1735 25.2979C94.8049 24.3797 93.819 23.0967 93.2161 21.4488C92.729 20.2718 92.4853 18.7297 92.4853 16.823C92.4853 15.5283 92.6594 14.3865 93.0073 13.3977C93.5407 11.7263 94.4685 10.3962 95.7907 9.40744C97.136 8.4187 98.7249 7.92435 100.557 7.92435C102.877 7.92435 104.732 8.60704 106.124 9.97243C107.539 11.3378 108.397 13.1623 108.699 15.4457ZM100.592 12.2324C99.1307 12.2324 98.1682 12.9269 97.7042 14.3159C97.6115 14.6218 97.5303 14.9985 97.4608 15.4457C97.4608 15.5635 97.5188 15.6224 97.6346 15.6224H103.654C103.793 15.6224 103.839 15.5635 103.793 15.4457C103.677 14.7631 103.619 14.4334 103.619 14.4571C103.41 13.7508 103.039 13.2093 102.506 12.8327C101.995 12.4325 101.357 12.2324 100.592 12.2324ZM128.666 1.88601C128.782 1.74476 128.921 1.67413 129.084 1.67413H131.728C131.96 1.67413 132.076 1.79185 132.076 2.02725V26.0393C132.076 26.2747 131.96 26.3925 131.728 26.3925H129.084C128.851 26.3925 128.736 26.2747 128.736 26.0393V7.95964C128.736 7.88903 128.712 7.84194 128.666 7.81841C128.62 7.79485 128.585 7.81841 128.562 7.88903L123.586 15.5869C123.494 15.7282 123.354 15.7988 123.169 15.7988H121.847C121.684 15.7988 121.545 15.7282 121.429 15.5869L116.419 7.95964C116.396 7.88903 116.361 7.86548 116.315 7.88903C116.268 7.91257 116.245 7.95964 116.245 8.03027V26.0393C116.245 26.2747 116.129 26.3925 115.897 26.3925H113.253C113.021 26.3925 112.905 26.2747 112.905 26.0393V2.02725C112.905 1.79185 113.021 1.67413 113.253 1.67413H115.897C116.083 1.67413 116.222 1.74476 116.315 1.88601L122.403 11.1377C122.427 11.1613 122.461 11.173 122.508 11.173C122.554 11.173 122.589 11.1613 122.612 11.1377L128.666 1.88601ZM139.377 5.59375C138.727 5.59375 138.194 5.38187 137.776 4.95813C137.359 4.53441 137.15 3.99295 137.15 3.33379C137.15 2.67465 137.359 2.13319 137.776 1.70945C138.194 1.2857 138.727 1.07384 139.377 1.07384C140.026 1.07384 140.56 1.2857 140.977 1.70945C141.395 2.13319 141.603 2.67465 141.603 3.33379C141.603 3.99295 141.395 4.53441 140.977 4.95813C140.56 5.38187 140.026 5.59375 139.377 5.59375ZM137.985 26.3571C137.753 26.3571 137.637 26.2395 137.637 26.0039V8.77183C137.637 8.53641 137.753 8.4187 137.985 8.4187H140.629C140.861 8.4187 140.977 8.53641 140.977 8.77183V26.0039C140.977 26.2395 140.861 26.3571 140.629 26.3571H137.985ZM153.324 26.675C151.561 26.675 150.054 26.2276 148.801 25.3331C147.549 24.4149 146.691 23.1791 146.227 21.6253C145.879 20.5424 145.705 19.1181 145.705 17.3526C145.705 15.7282 145.879 14.3039 146.227 13.0799C146.691 11.5732 147.549 10.3726 148.801 9.47806C150.077 8.58349 151.585 8.13621 153.324 8.13621C155.064 8.13621 156.583 8.58349 157.882 9.47806C159.181 10.3726 160.028 11.5026 160.422 12.868C160.561 13.2447 160.654 13.6331 160.7 14.0333C160.7 14.2216 160.596 14.3393 160.387 14.3865L157.778 14.7748H157.708C157.546 14.7748 157.43 14.669 157.36 14.4571L157.256 13.8921C157.07 13.0916 156.618 12.4207 155.899 11.8793C155.18 11.3378 154.31 11.0671 153.289 11.0671C152.292 11.0671 151.445 11.3378 150.75 11.8793C150.054 12.4207 149.601 13.1387 149.393 14.0333C149.184 14.8809 149.08 15.999 149.08 17.3878C149.08 18.7532 149.184 19.8598 149.393 20.7073C149.625 21.6489 150.077 22.3904 150.75 22.932C151.445 23.4733 152.292 23.7441 153.289 23.7441C154.31 23.7441 155.18 23.4733 155.899 22.932C156.641 22.3904 157.105 21.6841 157.291 20.8131C157.314 20.7897 157.314 20.766 157.291 20.7425C157.291 20.6954 157.302 20.6602 157.325 20.6367V20.4954C157.395 20.307 157.523 20.2364 157.708 20.2835L160.318 20.7073C160.503 20.7543 160.596 20.8486 160.596 20.9898V21.1311C160.596 21.3428 160.538 21.6018 160.422 21.9078C160.028 23.3438 159.181 24.4973 157.882 25.3685C156.583 26.2395 155.064 26.675 153.324 26.675ZM178.739 15.1632C178.832 16.1285 178.866 17.2114 178.843 18.412C178.843 18.6474 178.727 18.7652 178.495 18.7652H167.396C167.304 18.7652 167.257 18.8121 167.257 18.9064C167.257 19.7068 167.327 20.3188 167.466 20.7425C167.721 21.6841 168.231 22.4258 168.997 22.9672C169.786 23.485 170.771 23.7441 171.954 23.7441C173.671 23.7441 174.993 23.0261 175.921 21.59C176.036 21.3547 176.187 21.3193 176.373 21.484L178.356 22.8259C178.518 22.9672 178.553 23.1202 178.46 23.2851C177.811 24.3443 176.883 25.1801 175.677 25.7921C174.494 26.4042 173.149 26.7102 171.641 26.7102C169.948 26.7102 168.521 26.3336 167.362 25.5802C166.202 24.827 165.332 23.7558 164.752 22.3669C164.196 20.9779 163.917 19.2948 163.917 17.3172C163.917 15.5987 164.045 14.2922 164.3 13.3977C164.717 11.7733 165.552 10.4903 166.805 9.54869C168.057 8.60704 169.577 8.13621 171.363 8.13621C173.705 8.13621 175.457 8.73652 176.616 9.93712C177.776 11.1142 178.484 12.8562 178.739 15.1632ZM171.363 11.0671C170.365 11.0671 169.542 11.326 168.892 11.8439C168.243 12.3383 167.802 13.0092 167.57 13.8567C167.408 14.3745 167.304 15.0339 167.257 15.8342C167.257 15.9283 167.304 15.9755 167.396 15.9755H175.364C175.457 15.9755 175.503 15.9283 175.503 15.8342C175.457 15.0573 175.387 14.4806 175.294 14.104C175.062 13.1858 174.598 12.456 173.903 11.9146C173.23 11.3496 172.383 11.0671 171.363 11.0671Z" fill="var(--fill-0, #DFDFDF)"/>
</g>
<defs>
<linearGradient id="paint0_linear_0_54" x1="8.38417e-05" y1="13.9102" x2="29.9201" y2="13.9102" gradientUnits="userSpaceOnUse">
<stop stop-color="#FA494C"/>
<stop offset="0.326923" stop-color="#FFE38E"/>
<stop offset="0.668269" stop-color="#5ED5EF"/>
<stop offset="1" stop-color="#7EE8CC"/>
</linearGradient>
</defs>
</svg>
